<svg xmlns="http://www.w3.org/2000/svg" width="186" height="50" viewBox="0 0 186 50" version="1.1">
	<path d="M 0 2.500 C 0 4.888, 0.268 5, 5.977 5 L 11.954 5 12.227 22.750 L 12.500 40.500 15 40.500 L 17.500 40.500 17.773 22.750 L 18.046 5 24.023 5 C 29.732 5, 30 4.888, 30 2.500 L 30 0 15 0 L 0 0 0 2.500 M 170 20.570 L 170 41.139 172.250 40.820 C 174.488 40.502, 174.501 40.395, 174.771 20.250 L 175.041 0 172.521 0 L 170 0 170 20.570 M 181.229 20.250 C 181.499 40.395, 181.512 40.502, 183.750 40.820 L 186 41.139 186 20.570 L 186 0 183.479 -0 L 180.959 -0 181.229 20.250 M 32.034 10.752 C 23.105 15.256, 21.854 31.128, 29.857 38.371 C 33.048 41.259, 40.193 41.674, 44.362 39.214 C 47.804 37.183, 47.815 37.183, 48.336 39.176 C 48.669 40.449, 49.519 41.047, 50.679 40.823 C 52.347 40.502, 52.500 39.170, 52.500 24.986 C 52.500 9.688, 52.473 9.496, 50.250 9.180 C 48.723 8.964, 48 9.374, 48 10.456 C 48 11.901, 47.721 11.907, 45.050 10.526 C 41.157 8.513, 36.305 8.597, 32.034 10.752 M 60.667 9.667 C 60.300 10.033, 60 19.258, 60 30.167 L 60 50 62.500 50 C 64.909 50, 65 49.764, 65 43.534 L 65 37.067 68.545 39.159 C 73.380 42.012, 80.038 41.296, 84.005 37.495 C 89.324 32.399, 90.054 21.309, 85.524 14.396 C 82.301 9.477, 73.659 7.574, 67.950 10.526 C 65.306 11.893, 65 11.893, 65 10.526 C 65 9.006, 61.935 8.398, 60.667 9.667 M 91.012 9.750 C 91.018 10.162, 93.043 17.211, 95.512 25.414 C 97.980 33.617, 100 40.479, 100 40.664 C 100 40.849, 101.318 41, 102.929 41 C 106.111 41, 106.253 40.683, 110.756 23.514 C 111.696 19.931, 112.706 17, 113 17 C 113.294 17, 114.304 19.931, 115.244 23.514 C 119.528 39.848, 120.002 41, 122.449 41 C 123.717 41, 125.183 40.438, 125.706 39.750 C 126.554 38.634, 135 11.290, 135 9.659 C 135 9.297, 133.896 9, 132.547 9 C 129.877 9, 130.256 8.117, 126.003 24.250 C 124.735 29.063, 123.379 33, 122.991 33 C 122.603 33, 121.048 28.388, 119.537 22.750 C 116.269 10.564, 115.528 9, 113.024 9 C 110.461 9, 110.245 9.458, 106.497 22.851 C 104.704 29.258, 102.984 33.825, 102.676 33 C 102.368 32.175, 101.160 27.900, 99.993 23.500 C 96.234 9.331, 96.085 9, 93.422 9 C 92.090 9, 91.005 9.338, 91.012 9.750 M 144 11.181 C 137.256 15.727, 135.094 25.208, 138.895 33.576 C 141.896 40.183, 149.832 42.768, 157.401 39.606 C 163.442 37.082, 166.463 30, 161.500 30 C 160.072 30, 159 30.577, 159 31.345 C 159 33.210, 156.016 35.715, 152.858 36.503 C 147.906 37.739, 142 32.488, 142 26.851 C 142 26.383, 147.175 26, 153.500 26 C 160.915 26, 165 25.624, 165 24.943 C 165 21.253, 162.386 14.786, 159.952 12.454 C 155.844 8.518, 148.787 7.954, 144 11.181 M 35.357 13.992 C 31.660 15.483, 30 18.988, 30 25.299 C 30 30.491, 30.345 31.499, 33.046 34.200 C 35.669 36.823, 36.600 37.164, 39.737 36.655 C 45.796 35.672, 47.500 33.089, 47.500 24.886 C 47.500 18.391, 47.276 17.634, 44.694 15.413 C 41.792 12.917, 39.053 12.500, 35.357 13.992 M 68.546 15.206 C 63.110 19.883, 64.063 32.430, 70.091 35.547 C 74.267 37.707, 76.823 37.330, 80.077 34.077 C 82.660 31.493, 83 30.454, 83 25.133 C 83 17.866, 80.521 14.254, 74.925 13.364 C 72.076 12.911, 70.780 13.285, 68.546 15.206 M 146.856 14.476 C 145.402 15.288, 143.738 17.313, 143.158 18.976 L 142.104 22 150.552 22 C 158.168 22, 159 21.814, 159 20.111 C 159 15.037, 151.818 11.705, 146.856 14.476" stroke="none" fill="black" fill-rule="evenodd"/>
</svg>