<?xml version="1.0" encoding="UTF-8"?>
<!-- Generator: visioncortex VTracer 0.6.12 -->
<svg version="1.1" xmlns="http://www.w3.org/2000/svg" width="3142" height="520">
<path d="M0,0 L97,0 L107,19 L122,48 L146,95 L166,134 L184,169 L195,192 L212,228 L219,244 L219,246 L221,246 L220,240 L219,210 L219,0 L276,0 L276,296 L179,296 L167,272 L157,253 L143,226 L133,207 L119,180 L107,157 L95,134 L80,103 L62,62 L57,51 L58,111 L58,296 L0,296 Z " fill="#D6591F" transform="translate(884,112)"/>
<path d="M0,0 L169,0 L189,3 L204,8 L214,14 L222,22 L229,36 L233,53 L234,61 L234,91 L231,106 L226,118 L219,128 L211,135 L198,141 L194,143 L207,147 L217,152 L226,160 L233,171 L238,183 L241,198 L241,233 L237,253 L232,265 L225,276 L215,284 L203,290 L188,294 L175,296 L0,296 Z M57,47 L57,124 L125,124 L146,123 L160,120 L168,116 L173,108 L176,95 L176,74 L172,63 L165,55 L153,49 L136,47 Z M57,165 L57,249 L117,249 L151,248 L166,245 L174,241 L178,236 L182,226 L183,220 L183,192 L180,180 L176,174 L168,169 L151,166 L127,165 Z " fill="#D6591F" transform="translate(1212,112)"/>
<path d="M0,0 L69,0 L98,3 L120,8 L132,13 L141,20 L149,31 L155,47 L158,63 L159,72 L159,92 L101,92 L99,76 L95,64 L91,58 L84,54 L71,51 L61,50 L9,50 L-10,53 L-22,57 L-30,63 L-36,75 L-39,89 L-40,97 L-41,151 L-40,202 L-37,223 L-32,236 L-27,242 L-17,247 L-1,251 L8,252 L57,252 L75,249 L86,245 L93,239 L98,228 L101,210 L102,183 L28,183 L28,142 L159,142 L160,160 L160,220 L157,244 L152,262 L145,275 L137,284 L126,290 L116,294 L93,299 L64,302 L-2,302 L-26,299 L-47,294 L-63,287 L-74,279 L-81,271 L-89,255 L-94,239 L-97,224 L-99,206 L-100,183 L-100,163 L-99,120 L-97,90 L-94,67 L-90,52 L-82,36 L-74,26 L-66,18 L-55,11 L-37,5 L-12,1 Z " fill="#D6591F" transform="translate(2376,109)"/>
<path d="M0,0 L62,0 L87,3 L108,8 L124,15 L137,25 L146,39 L153,60 L157,81 L160,111 L160,186 L157,219 L152,245 L147,260 L141,272 L134,280 L122,288 L103,295 L84,299 L57,302 L-6,302 L-31,299 L-52,294 L-68,287 L-79,279 L-87,269 L-94,254 L-99,235 L-103,208 L-104,196 L-105,171 L-105,148 L-104,118 L-101,85 L-97,62 L-92,45 L-84,29 L-75,20 L-61,12 L-46,7 L-27,3 Z M3,49 L-17,52 L-29,56 L-37,62 L-41,72 L-44,89 L-46,114 L-47,149 L-47,174 L-46,198 L-43,222 L-39,235 L-35,241 L-30,245 L-21,249 L-6,252 L3,253 L54,253 L73,250 L86,245 L92,240 L97,228 L100,212 L102,189 L102,110 L100,87 L97,71 L92,61 L86,56 L70,51 L54,49 Z " fill="#D6591F" transform="translate(1584,109)"/>
<path d="M0,0 L63,0 L88,3 L105,7 L117,12 L126,18 L134,27 L140,39 L144,55 L145,63 L145,89 L89,89 L86,68 L82,57 L77,52 L70,49 L58,47 L10,47 L-8,50 L-17,54 L-22,59 L-26,67 L-28,81 L-27,99 L-23,112 L-17,117 L1,121 L32,124 L73,127 L99,131 L118,136 L132,143 L140,151 L147,165 L151,182 L152,190 L152,229 L149,250 L144,266 L138,277 L132,284 L122,290 L109,295 L91,299 L76,301 L63,302 L-3,302 L-28,299 L-49,294 L-63,287 L-73,278 L-79,268 L-84,253 L-87,236 L-88,205 L-32,205 L-30,230 L-26,243 L-21,249 L-13,252 L-3,254 L7,255 L60,255 L77,252 L85,248 L90,242 L94,229 L95,220 L95,204 L92,190 L88,184 L81,180 L68,177 L45,175 L2,172 L-28,168 L-45,164 L-61,158 L-69,152 L-76,144 L-81,133 L-85,116 L-86,109 L-87,82 L-85,58 L-81,42 L-73,26 L-63,16 L-49,9 L-36,5 L-12,1 Z " fill="#D6591F" transform="translate(219,109)"/>
<path d="M0,0 L86,0 L90,10 L112,76 L126,117 L160,218 L182,283 L186,296 L126,296 L114,260 L108,242 L108,239 L-19,239 L-22,250 L-37,296 L-98,296 L-95,285 Z M43,47 L22,111 L8,154 L-6,197 L-6,198 L94,198 L92,189 L46,51 L45,47 Z " fill="#D6591F" transform="translate(2077,112)"/>
<path d="M0,0 L203,0 L203,47 L57,47 L57,124 L196,124 L196,165 L57,165 L57,249 L204,249 L204,296 L0,296 Z " fill="#D6591F" transform="translate(2569,112)"/>
<path d="M0,0 L203,0 L203,47 L57,47 L57,124 L196,124 L196,165 L57,165 L57,249 L204,249 L204,296 L0,296 Z " fill="#D6591F" transform="translate(639,112)"/>
<path d="M0,0 L231,0 L231,50 L142,50 L142,296 L85,296 L85,50 L0,50 Z " fill="#D6591F" transform="translate(2791,112)"/>
<path d="M0,0 L231,0 L231,50 L142,50 L142,296 L85,296 L85,50 L0,50 Z " fill="#D6591F" transform="translate(386,112)"/>
<path d="M0,0 L57,0 L57,246 L195,246 L195,296 L0,296 Z " fill="#D6591F" transform="translate(1782,112)"/>
</svg>
